<?xml version="1.0" encoding="UTF-8" standalone="no"?>
<!-- Created with Inkscape (http://www.inkscape.org/) -->

<svg
   xmlns:dc="http://purl.org/dc/elements/1.1/"
   xmlns:cc="http://creativecommons.org/ns#"
   xmlns:rdf="http://www.w3.org/1999/02/22-rdf-syntax-ns#"
   xmlns:svg="http://www.w3.org/2000/svg"
   xmlns="http://www.w3.org/2000/svg"
   xmlns:sodipodi="http://sodipodi.sourceforge.net/DTD/sodipodi-0.dtd"
   xmlns:inkscape="http://www.inkscape.org/namespaces/inkscape"
   width="210mm"
   height="297mm"
   viewBox="0 0 744.09448819 1052.3622047"
   id="svg2"
   version="1.1"
   inkscape:version="0.91 r13725"
   sodipodi:docname="player.svg">
  <defs
     id="defs4" />
  <sodipodi:namedview
     id="base"
     pagecolor="#ffffff"
     bordercolor="#666666"
     borderopacity="1.0"
     inkscape:pageopacity="0.0"
     inkscape:pageshadow="2"
     inkscape:zoom="1.979899"
     inkscape:cx="262.88654"
     inkscape:cy="174.74486"
     inkscape:document-units="px"
     inkscape:current-layer="layer1"
     showgrid="false"
     inkscape:window-width="1600"
     inkscape:window-height="837"
     inkscape:window-x="-8"
     inkscape:window-y="521"
     inkscape:window-maximized="1" />
  <metadata
     id="metadata7">
    <rdf:RDF>
      <cc:Work
         rdf:about="">
        <dc:format>image/svg+xml</dc:format>
        <dc:type
           rdf:resource="http://purl.org/dc/dcmitype/StillImage" />
        <dc:title />
      </cc:Work>
    </rdf:RDF>
  </metadata>
  <g
     inkscape:label="Layer 1"
     inkscape:groupmode="layer"
     id="layer1">
    <circle
       style="fill:#1e1e1e;fill-opacity:1;fill-rule:evenodd;stroke:#1e1e1e;stroke-width:3;stroke-linecap:butt;stroke-linejoin:miter;stroke-miterlimit:4;stroke-dasharray:none;stroke-opacity:1"
       id="path3336"
       cx="350.71426"
       cy="-52.403042"
       r="129.28572" />
    <path
       style="fill:none;fill-rule:evenodd;stroke:#000000;stroke-width:1px;stroke-linecap:butt;stroke-linejoin:miter;stroke-opacity:1"
       d="m 350.71427,-208.47157 0,312.13713"
       id="path3338"
       inkscape:connector-curvature="0" />
    <path
       style="fill:none;fill-rule:evenodd;stroke:#000000;stroke-width:1px;stroke-linecap:butt;stroke-linejoin:miter;stroke-opacity:1"
       d="M 310.32075,-203.15366 391.10779,98.347647"
       id="path3338-3"
       inkscape:connector-curvature="0" />
    <path
       inkscape:transform-center-y="-119.28675"
       sodipodi:nodetypes="ccccccccccccccccccccccccccccccccccccc"
       inkscape:connector-curvature="0"
       id="path4204"
       d="m 407.47263,-198.82774 41.78441,24.12424 -6.72158,30.61141 30.61141,-6.72158 24.12424,41.78441 -21.12675,23.149467 29.87104,9.48465 0,48.24848 -29.87104,9.48465 21.12676,23.1494705 -24.12424,41.7844095 -30.6114,-6.72157 6.72157,30.6114 -41.78441,24.12424 -23.14947,-21.12676 -9.48465,29.871053 -48.24848,0 -9.48465,-29.871043 -23.14947,21.12676 -41.78441,-24.12424 6.72158,-30.6114 -30.61141,6.72157 -24.12424,-41.7844095 21.12676,-23.1494705 -29.87105,-9.48465 0,-48.24848 29.87104,-9.48465 -21.12676,-23.149467 24.12424,-41.78441 30.61141,6.72158 -6.72158,-30.61141 41.78441,-24.12424 23.14947,21.12675 9.48465,-29.87104 48.24848,0 9.48465,29.87104 z"
       style="fill:none;fill-rule:evenodd;stroke:#000000;stroke-width:2;stroke-linecap:butt;stroke-linejoin:round;stroke-miterlimit:4;stroke-dasharray:none;stroke-opacity:1"
       inkscape:transform-center-x="-66.209325" />
    <path
       inkscape:transform-center-y="-119.28675"
       sodipodi:nodetypes="ccccccccccccccccccccccccccccccccccccc"
       inkscape:connector-curvature="0"
       id="path4204-1"
       d="m 219.61549,120.80536 41.78441,24.12424 -6.72158,30.61141 30.61141,-6.72158 24.12424,41.78441 -21.12675,23.14947 29.87104,9.48465 0,48.24848 -29.87104,9.48465 21.12676,23.14947 -24.12424,41.78441 -30.6114,-6.72157 6.72157,30.61136 -41.78441,24.1243 -23.14947,-21.1268 -9.48465,29.8711 -48.24848,0 -9.48465,-29.8711 -23.14947,21.1268 -41.784406,-24.1242 6.72158,-30.61145 -30.611413,6.72157 -24.12424,-41.78441 21.12676,-23.14947 -29.8710497,-9.48465 0,-48.24848 29.8710397,-9.48465 -21.12676,-23.14947 24.12424,-41.78441 30.611413,6.72158 -6.72158,-30.61141 41.784406,-24.12424 23.14947,21.12675 9.48465,-29.87104 48.24848,0 9.48465,29.87104 z"
       style="fill:#232323;fill-opacity:1;fill-rule:evenodd;stroke:#000000;stroke-width:2;stroke-linecap:butt;stroke-linejoin:round;stroke-miterlimit:4;stroke-dasharray:none;stroke-opacity:1"
       inkscape:transform-center-x="-66.209325" />
    <circle
       style="fill:#0a3c0a;fill-opacity:1;stroke:#000000;stroke-width:2;stroke-miterlimit:4;stroke-dasharray:none;stroke-opacity:1"
       id="path4171"
       cx="162.85715"
       cy="267.36221"
       r="120.44381" />
    <circle
       style="fill:#00ff00;fill-opacity:1;stroke:#000000;stroke-width:2;stroke-linejoin:round;stroke-miterlimit:4;stroke-dasharray:none;stroke-opacity:1"
       id="path4173"
       cx="125.71429"
       cy="233.07651"
       r="26.785715" />
    <path
       inkscape:transform-center-x="-24.462547"
       style="fill:#232323;fill-opacity:1;fill-rule:evenodd;stroke:#000000;stroke-width:4;stroke-linecap:butt;stroke-linejoin:round;stroke-miterlimit:4;stroke-dasharray:none;stroke-opacity:1"
       d="m 632.16255,822.99614 3.58336,17.46263 -10.10686,5.65126 9.36572,6.80947 -5.62805,16.91476 -11.57842,-0.15928 4.70622,10.58004 -13.3314,11.83458 -9.9476,-5.92712 -1.21428,11.51566 -17.46267,3.58336 -5.65126,-10.10685 -6.80944,9.36569 -16.91478,-5.62802 0.15929,-11.57845 -10.58004,4.70624 -11.8346,-13.33143 5.92718,-9.94757 -11.51569,-1.21431 -3.58337,-17.46262 10.10684,-5.65127 -9.36572,-6.80946 5.62804,-16.91477 11.57844,0.15927 -4.70621,-10.58004 13.3314,-11.83459 9.94758,5.92716 1.21431,-11.51568 17.46262,-3.58336 5.65129,10.10685 6.80946,-9.36572 16.91478,5.62805 -0.15929,11.57843 10.58003,-4.70622 11.83459,13.33141 -5.92715,9.94757 z"
       id="path4175"
       inkscape:connector-curvature="0"
       sodipodi:nodetypes="ccccccccccccccccccccccccccccccccccccc"
       inkscape:transform-center-y="-44.073199" />
    <ellipse
       cy="551.64618"
       cx="865.14246"
       id="circle4177"
       style="fill:#0a3c0a;fill-opacity:1;stroke:#000000;stroke-width:4.00006866;stroke-miterlimit:4;stroke-dasharray:none;stroke-opacity:1"
       transform="matrix(0.92102337,0.38950733,-0.3971214,0.91776609,0,0)"
       rx="41.399681"
       ry="41.07357" />
    <circle
       r="11.754796"
       cy="287.38788"
       cx="976.54608"
       id="circle4179"
       style="fill:#00ff00;fill-opacity:1;stroke:#000000;stroke-width:3;stroke-linejoin:round;stroke-miterlimit:4;stroke-dasharray:none;stroke-opacity:1"
       transform="matrix(0.78628672,0.6178618,-0.6178618,0.78628672,0,0)" />
    <path
       inkscape:transform-center-y="-44.073199"
       sodipodi:nodetypes="ccccccccccccccccccccccccccccccccccccc"
       inkscape:connector-curvature="0"
       id="path4146"
       d="m 337.70308,815.92507 3.58336,17.4626 -10.10686,5.6513 9.36572,6.8095 -5.62805,16.9147 -11.57842,-0.1593 4.70622,10.5801 -13.3314,11.8346 -9.9476,-5.9272 -1.21428,11.5157 -17.46267,3.5834 -5.65126,-10.1069 -6.80944,9.3657 -16.91478,-5.628 0.15929,-11.5785 -10.58004,4.7063 -11.8346,-13.3315 5.92718,-9.9475 -11.51569,-1.2143 -3.58337,-17.4627 10.10684,-5.6512 -9.36572,-6.8095 5.62804,-16.9148 11.57844,0.1593 -4.70621,-10.58003 13.3314,-11.83459 9.94758,5.92716 1.21431,-11.51568 17.46262,-3.58336 5.65129,10.10685 6.80946,-9.36572 16.91478,5.62805 -0.15929,11.57843 10.58003,-4.70622 11.83459,13.33141 -5.92715,9.9476 z"
       style="fill:#232323;fill-opacity:1;fill-rule:evenodd;stroke:#000000;stroke-width:4;stroke-linecap:butt;stroke-linejoin:round;stroke-miterlimit:4;stroke-dasharray:none;stroke-opacity:1"
       inkscape:transform-center-x="-24.462547"
       inkscape:export-filename="C:\Users\Will Hauber\Documents\Unity\Projects\Virus Runner\Assets\Sprites\Player\player_body.png"
       inkscape:export-xdpi="50"
       inkscape:export-ydpi="50" />
    <ellipse
       ry="41.07357"
       rx="41.399681"
       transform="matrix(0.92102337,0.38950733,-0.3971214,0.91776609,0,0)"
       style="fill:#0a3c0a;fill-opacity:1;stroke:#000000;stroke-width:4.00006866;stroke-miterlimit:4;stroke-dasharray:none;stroke-opacity:1"
       id="ellipse4148"
       cx="425.48907"
       cy="737.68829"
       inkscape:export-filename="C:\Users\Will Hauber\Documents\Unity\Projects\Virus Runner\Assets\Sprites\Player\player_face.png"
       inkscape:export-xdpi="50"
       inkscape:export-ydpi="50" />
    <circle
       transform="matrix(0.78628672,0.6178618,-0.6178618,0.78628672,0,0)"
       style="fill:#00ff00;fill-opacity:1;stroke:#000000;stroke-width:3;stroke-linejoin:round;stroke-miterlimit:4;stroke-dasharray:none;stroke-opacity:1"
       id="circle4150"
       cx="661.10828"
       cy="548.1051"
       r="11.754796"
       inkscape:export-filename="C:\Users\Will Hauber\Documents\Unity\Projects\Virus Runner\Assets\Sprites\Player\player_eye.png"
       inkscape:export-xdpi="50"
       inkscape:export-ydpi="50" />
  </g>
</svg>
